<?xml version="1.0" encoding="UTF-8" standalone="no"?>
<svg width="64px" height="64px" viewBox="0 0 64 64" version="1.1" xmlns="http://www.w3.org/2000/svg" xmlns:xlink="http://www.w3.org/1999/xlink" xmlns:sketch="http://www.bohemiancoding.com/sketch/ns">
    <!-- Generator: Sketch 3.3.3 (12072) - http://www.bohemiancoding.com/sketch -->
    <title>pinned_icon</title>
    <desc>Created with Sketch.</desc>
    <defs></defs>
    <g id="Favicons" stroke="none" stroke-width="1" fill="none" fill-rule="evenodd" sketch:type="MSPage">
        <g id="pinned_icon" sketch:type="MSArtboardGroup" fill="#FFFFFF">
            <path d="M32.893864,43 C37.3200663,43 40.3366501,40.59375 40.3366501,37.0989583 C40.3366501,33.4895833 37.8557214,32.0572917 33.655058,30.7395833 C29.5671642,29.421875 28.1575456,28.6770833 28.1575456,26.4140625 C28.1575456,24.609375 29.7363184,23.2916667 32.3864013,23.2916667 C34.86733,23.2916667 36.6716418,24.3229167 37.7993367,26.8723958 L39.7728027,25.7552083 C38.7014925,23.0625 36.3897181,21 32.4145937,21 C28.4394693,21 25.7048093,23.3776042 25.7048093,26.6145833 C25.7048093,30.28125 28.2985075,31.484375 32.6401327,32.8307292 C36.7562189,34.1484375 37.8839138,35.1796875 37.8839138,37.2708333 C37.8839138,39.5052083 35.9386401,40.765625 33.0066335,40.765625 C30.1873964,40.765625 28.1293532,39.3619792 27.0862355,36.5260417 L25,37.4713542 C26.0995025,40.8229167 28.9187396,43 32.893864,43 L32.893864,43 Z" id="S" sketch:type="MSShapeGroup"></path>
        </g>
    </g>
</svg>