<?xml version="1.0" encoding="UTF-8" standalone="no"?>
<svg width="288px" height="96px" viewBox="0 0 288 96" version="1.1" xmlns="http://www.w3.org/2000/svg" xmlns:xlink="http://www.w3.org/1999/xlink">
    <!-- Generator: Sketch 39.1 (31720) - http://www.bohemiancoding.com/sketch -->
    <title>assets</title>
    <desc>Created with Sketch.</desc>
    <defs>
        <polygon id="path-1" points="0.072 0.486956522 60 0.486956522 60 27.2695652 0.072 27.2695652"></polygon>
    </defs>
    <g id="Page-1" stroke="none" stroke-width="1" fill="none" fill-rule="evenodd">
        <g id="assets">
            <g id="Fill-1-Copy-+-Fill-2-Copy-Copy" transform="translate(96.000000, 0.000000)" fill="#FFFFFF">
                <path d="M4.73905414,2.73706927 C4.73905414,3.88675618 3.84548855,4.81780259 2.37641097,4.81780259 C0.994101145,4.81780259 0.100535561,3.88675618 0.100535561,2.73706927 C0.100535561,1.56116712 1.02283407,0.65741699 2.43416131,0.65741699 C3.84548855,0.65741699 4.71003673,1.56116712 4.73905414,2.73706927 L4.73905414,2.73706927 Z M0.216036238,6.45963334 L4.59453605,6.45963334 L4.59453605,19.8437295 L0.216036238,19.8437295 L0.216036238,6.45963334 Z" id="Fill-1-Copy"></path>
                <path d="M6.4304367,10.7286635 C6.4304367,9.05980678 6.3738243,7.66418307 6.31578947,6.45963334 L10.1187773,6.45963334 L10.3210457,8.32064511 L10.407529,8.32064511 C10.9833255,7.44446153 12.3946527,6.15856347 14.7570114,6.15856347 C17.6385541,6.15856347 19.7989289,7.99227896 19.7989289,11.9332133 L19.7989289,19.8437295 L15.4192911,19.8437295 L15.4192911,12.4264382 C15.4192911,10.7013673 14.7860288,9.52519485 13.2014505,9.52519485 C11.9912538,9.52519485 11.2709392,10.3192193 10.9543081,11.0856773 C10.8388074,11.3589103 10.80979,11.7421393 10.80979,12.1253683 L10.80979,19.8437295 L6.4304367,19.8437295 L6.4304367,10.7286635 Z" id="Fill-2-Copy"></path>
            </g>
            <path d="M9.30741191,20 C11.3973269,20 13.3171324,19.4010417 14.7752126,18.3854167 L14.1190765,17.265625 C12.7339004,18.1770833 11.2515188,18.6197917 9.38031592,18.6197917 C4.64155529,18.6197917 1.50668287,15.0520833 1.50668287,10.0260417 C1.50668287,5.02604167 4.7144593,1.484375 9.47752126,1.484375 C14.2162819,1.484375 17.472661,4.89583333 17.472661,9.81770833 C17.472661,12.6822917 16.2818955,14.1666667 14.72661,14.1666667 C13.4872418,14.1666667 12.9769137,13.4375 13.1470231,12.265625 L14.2891859,4.53125 L11.9562576,4.53125 L11.7861482,5.67708333 C11.1543135,4.921875 10.328068,4.32291667 8.84568651,4.32291667 C6.12393682,4.32291667 4.00972053,7.1875 4.00972053,11.328125 C4.00972053,14.0104167 5.39489672,15.390625 7.41190765,15.390625 C9.11300122,15.390625 10.3037667,14.7395833 11.3001215,13.671875 C11.6646416,14.9479167 12.636695,15.625 14.4106926,15.625 C17.181045,15.625 18.9064399,13.3072917 18.9064399,9.73958333 C18.9064399,4.03645833 15.0425273,0 9.47752126,0 C3.91251519,0 0,4.19270833 0,10.0260417 C0,15.859375 3.69380316,20 9.30741191,20 L9.30741191,20 Z M8.26245443,13.4375 C6.9744836,13.4375 6.36695018,12.6822917 6.36695018,11.0677083 C6.36695018,8.64583333 7.43620899,6.40625 9.2345079,6.40625 C10.2065614,6.40625 10.8626974,6.74479167 11.5188335,7.55208333 L10.8383961,12.1614583 C10.036452,12.9947917 9.18590522,13.4375 8.26245443,13.4375 L8.26245443,13.4375 Z" id="@" fill="#FFFFFF"></path>
            <g id="glasses42" transform="translate(192.000000, 0.000000)">
                <mask id="mask-2" fill="white">
                    <use xlink:href="#path-1"></use>
                </mask>
                <g id="Clip-2"></g>
                <path d="M46.5612,0.486956522 C40.7064,0.486956522 35.7516,4.44834783 34.1484,9.85965217 C33.0936,8.59478261 31.5192,7.79130435 29.7612,7.79130435 C28.0032,7.79130435 26.4276,8.59478261 25.3692,9.85965217 C23.766,4.44834783 18.8112,0.486956522 12.9612,0.486956522 C5.8128,0.486956522 0,6.384 0,13.636 C0,20.8831304 5.8128,26.7850435 12.9612,26.7850435 C20.1048,26.7850435 25.9224,20.8831304 25.9224,13.636 C25.9224,11.486087 27.642,9.74156522 29.7612,9.74156522 C31.8744,9.74156522 33.6,11.486087 33.6,13.636 C33.6,20.8831304 39.4128,26.7850435 46.5612,26.7850435 C53.7048,26.7850435 59.5224,20.8831304 59.5224,13.636 C59.5224,6.384 53.7048,0.486956522 46.5612,0.486956522 L46.5612,0.486956522 Z M12.9612,24.8347826 C6.8724,24.8347826 1.9224,19.8081739 1.9224,13.636 C1.9224,7.45895652 6.8724,2.43721739 12.9612,2.43721739 C19.0452,2.43721739 24,7.45895652 24,13.636 C24,19.8081739 19.0452,24.8347826 12.9612,24.8347826 L12.9612,24.8347826 Z M46.5612,24.8347826 C40.4724,24.8347826 35.5224,19.8081739 35.5224,13.636 C35.5224,7.45895652 40.4724,2.43721739 46.5612,2.43721739 C52.6452,2.43721739 57.6,7.45895652 57.6,13.636 C57.6,19.8081739 52.6452,24.8347826 46.5612,24.8347826 L46.5612,24.8347826 Z" id="Fill-1" fill="#FFFFFF" mask="url(#mask-2)"></path>
            </g>
        </g>
    </g>
</svg>